# Blender v2.70 (sub 0) OBJ File: 'mushroom.blend'
# www.blender.org
mtllib mushroom.mtl
o mushroom_Cylinder
v 0.000000 0.000000 0.000000
v 0.000000 0.000000 6.344944
v 0.000000 1.142216 3.344944
v 0.000000 0.925710 6.344944
v 0.671378 0.924072 3.344944
v 0.544118 0.748915 6.344944
v 1.086312 0.352964 3.344944
v 0.880402 0.286060 6.344944
v 1.086312 -0.352964 3.344944
v 0.880402 -0.286060 6.344944
v 0.671378 -0.924072 3.344944
v 0.544118 -0.748915 6.344944
v -0.000000 -1.142216 3.344944
v -0.000000 -0.925710 6.344944
v -0.671378 -0.924072 3.344944
v -0.544119 -0.748915 6.344944
v -1.086312 -0.352964 3.344944
v -0.880402 -0.286060 6.344944
v -1.086312 0.352964 3.344944
v -0.880402 0.286060 6.344944
v -0.671377 0.924073 3.344944
v -0.544118 0.748915 6.344944
v 0.000000 1.500000 6.045487
v 0.881678 1.213526 6.045487
v 1.426585 0.463525 6.045487
v 1.426585 -0.463526 6.045487
v 0.881678 -1.213526 6.045487
v -0.000000 -1.500000 6.045487
v -0.881678 -1.213525 6.045487
v -1.426585 -0.463526 6.045487
v -1.426585 0.463526 6.045487
v -0.881677 1.213526 6.045487
v 1.494331 2.056771 3.596703
v 2.417879 0.785616 3.596703
v 2.417879 -0.785617 3.596703
v 1.494331 -2.056771 3.596703
v -0.000000 -2.542309 3.596703
v -1.494332 -2.056771 3.596703
v -2.417879 -0.785617 3.596703
v -2.417879 0.785617 3.596703
v -1.494331 2.056772 3.596703
v -0.000000 2.542309 3.596703
v 1.420608 1.955300 4.686299
v 2.298592 0.746858 4.686299
v 2.298592 -0.746858 4.686299
v 1.420608 -1.955299 4.686299
v -0.000000 -2.416883 4.686299
v -1.420608 -1.955299 4.686299
v -2.298592 -0.746858 4.686299
v -2.298592 0.746858 4.686299
v -1.420607 1.955300 4.686299
v -0.000000 2.416883 4.686299
v 0.000000 1.142216 0.131392
v 0.671378 0.924072 0.131392
v 1.086312 0.352964 0.131392
v 1.086312 -0.352964 0.131392
v 0.671378 -0.924072 0.131392
v -0.000000 -1.142216 0.131392
v -0.671378 -0.924072 0.131392
v -1.086312 -0.352964 0.131392
v -1.086312 0.352964 0.131392
v -0.671377 0.924073 0.131392
v 0.000000 0.897627 0.000000
v 0.527612 0.726196 0.000000
v 0.853694 0.277382 0.000000
v 0.853694 -0.277382 0.000000
v 0.527612 -0.726195 0.000000
v -0.000000 -0.897627 0.000000
v -0.527612 -0.726195 0.000000
v -0.853694 -0.277382 0.000000
v -0.853694 0.277382 0.000000
v -0.527612 0.726196 0.000000
vt 0.258402 0.915946
vt 0.257190 0.422018
vt 0.287981 0.420601
vt 0.748438 0.236939
vt 0.713031 0.239861
vt 0.718076 0.218491
vt 0.687466 0.241228
vt 0.225948 0.916256
vt 0.226376 0.422328
vt 0.721510 0.260114
vt 0.701631 0.276247
vt 0.193691 0.915340
vt 0.195570 0.421412
vt 0.740275 0.271515
vt 0.733675 0.296251
vt 0.162262 0.913549
vt 0.164799 0.419621
vt 0.762157 0.269710
vt 0.771357 0.293601
vt 0.131859 0.911566
vt 0.134068 0.417638
vt 0.778799 0.255387
vt 0.800285 0.269308
vt 0.102272 0.910150
vt 0.103368 0.416221
vt 0.783844 0.234018
vt 0.809409 0.232651
vt 0.073064 0.909840
vt 0.072681 0.415912
vt 0.775365 0.213765
vt 0.351182 0.910756
vt 0.349446 0.416827
vt 0.380137 0.415912
vt 0.756600 0.202363
vt 0.763200 0.177627
vt 0.321225 0.912547
vt 0.318732 0.418619
vt 0.734718 0.204169
vt 0.725518 0.180278
vt 0.290307 0.914529
vt 0.696590 0.204571
vt 0.609767 0.239582
vt 0.637804 0.320586
vt 0.708099 0.369639
vt 0.793802 0.368006
vt 0.862177 0.316310
vt 0.887108 0.234297
vt 0.795244 0.197632
vt 0.788776 0.104239
vt 0.703073 0.105872
vt 0.634697 0.157569
vt 0.289042 0.955041
vt 0.257736 0.958195
vt 0.226184 0.958884
vt 0.194719 0.956846
vt 0.163631 0.952859
vt 0.133034 0.948446
vt 0.102849 0.945292
vt 0.072863 0.944603
vt 0.380520 0.909840
vt 0.380319 0.944603
vt 0.350263 0.946641
vt 0.319890 0.950628
vt 0.526927 0.236940
vt 0.569232 0.367140
vt 0.679987 0.447609
vt 0.927643 0.367140
vt 0.969948 0.236940
vt 0.859071 0.153293
vt 0.816888 0.026270
vt 0.679987 0.026270
vt 0.257143 0.401202
vt 0.287888 0.400089
vt 0.226393 0.401446
vt 0.195644 0.400726
vt 0.164901 0.399318
vt 0.134161 0.397760
vt 0.103415 0.396647
vt 0.072665 0.396403
vt 0.349372 0.397123
vt 0.318629 0.398531
vt 0.352855 0.245197
vt 0.045399 0.245197
vt 0.380121 0.396403
vt 0.569231 0.106739
vt 0.816888 0.447608
vt 0.927644 0.106739
vn 0.309017 0.951057 0.000000
vn 0.000001 0.000000 1.000000
vn 0.148561 0.457226 0.876855
vn 0.809017 0.587785 0.000000
vn 0.388940 0.282581 0.876854
vn 1.000000 -0.000000 0.000000
vn -0.000001 0.000000 1.000000
vn 0.480757 0.000000 0.876854
vn 0.809017 -0.587785 0.000000
vn 0.388939 -0.282581 0.876855
vn 0.309017 -0.951057 0.000000
vn 0.148562 -0.457226 0.876854
vn -0.309017 -0.951057 0.000000
vn 0.000000 0.000000 1.000000
vn -0.148562 -0.457226 0.876854
vn -0.809017 -0.587785 0.000000
vn -0.388939 -0.282581 0.876855
vn -1.000000 0.000000 0.000000
vn -0.480756 0.000000 0.876854
vn -0.809017 0.587785 0.000000
vn -0.388941 0.282581 0.876854
vn -0.309017 0.951057 0.000000
vn -0.148561 0.457226 0.876854
vn 0.260091 0.800478 0.539988
vn 0.680928 0.494723 0.539988
vn 0.841673 -0.000000 0.539988
vn 0.680927 -0.494723 0.539988
vn 0.260091 -0.800478 0.539988
vn -0.260091 -0.800478 0.539988
vn -0.680928 -0.494723 0.539988
vn -0.841673 0.000000 0.539988
vn -0.680928 0.494723 0.539988
vn -0.260091 0.800478 0.539988
vn 0.057409 0.176685 -0.982592
vn 0.150298 0.109198 -0.982592
vn 0.185778 0.000000 -0.982592
vn 0.150297 -0.109198 -0.982592
vn 0.057408 -0.176685 -0.982592
vn -0.057408 -0.176685 -0.982592
vn -0.150297 -0.109198 -0.982592
vn -0.185779 0.000000 -0.982592
vn -0.150297 0.109198 -0.982592
vn -0.057409 0.176685 -0.982592
vn 0.307181 0.945408 0.108828
vn 0.804212 0.584294 0.108828
vn 0.994061 -0.000000 0.108828
vn 0.804212 -0.584294 0.108828
vn 0.307181 -0.945408 0.108828
vn -0.307182 -0.945408 0.108828
vn -0.804212 -0.584294 0.108828
vn -0.994061 0.000000 0.108828
vn -0.804212 0.584294 0.108828
vn -0.307181 0.945408 0.108828
vn 0.151977 0.467739 -0.870703
vn 0.397882 0.289078 -0.870703
vn 0.491810 -0.000000 -0.870703
vn 0.397882 -0.289079 -0.870703
vn 0.151977 -0.467739 -0.870703
vn -0.151978 -0.467739 -0.870703
vn -0.397882 -0.289078 -0.870703
vn -0.491810 0.000000 -0.870703
vn -0.397882 0.289079 -0.870703
vn -0.151977 0.467739 -0.870703
vn 0.000000 0.000000 -1.000000
vn 0.148562 0.457226 0.876854
vn 0.388939 0.282582 0.876855
vn 0.480756 -0.000000 0.876854
vn 0.388940 -0.282581 0.876854
vn -0.388940 -0.282581 0.876854
vn -0.388938 0.282582 0.876855
vn -0.148562 0.457226 0.876854
vn 0.260091 0.800479 0.539988
vn 0.680928 -0.494723 0.539988
vn 0.260091 -0.800479 0.539988
vn -0.260091 0.800479 0.539988
vn 0.057408 0.176685 -0.982592
vn 0.150297 0.109198 -0.982592
vn 0.150298 -0.109198 -0.982592
vn 0.057409 -0.176685 -0.982592
vn -0.057409 -0.176685 -0.982592
vn -0.150298 -0.109198 -0.982592
vn -0.185778 0.000000 -0.982592
vn -0.150298 0.109198 -0.982592
vn 0.307182 0.945408 0.108828
vn 0.307182 -0.945408 0.108828
vn 0.151978 0.467739 -0.870703
vn 0.397883 -0.289079 -0.870703
vn 0.151978 -0.467739 -0.870703
vn -0.397882 -0.289079 -0.870703
usemtl mushroom
s off
f 5/1/1 54/2/1 53/3/1
f 2/4/2 6/5/2 4/6/2
f 4/6/3 6/5/3 24/7/3
f 7/8/4 55/9/4 54/2/4
f 2/4/2 8/10/2 6/5/2
f 6/5/5 8/10/5 25/11/5
f 9/12/6 56/13/6 55/9/6
f 2/4/7 10/14/7 8/10/7
f 8/10/8 10/14/8 26/15/8
f 11/16/9 57/17/9 56/13/9
f 2/4/7 12/18/7 10/14/7
f 10/14/10 12/18/10 27/19/10
f 13/20/11 58/21/11 57/17/11
f 2/4/2 14/22/2 12/18/2
f 12/18/12 14/22/12 28/23/12
f 15/24/13 59/25/13 58/21/13
f 2/4/14 16/26/14 14/22/14
f 14/22/15 16/26/15 29/27/15
f 17/28/16 60/29/16 59/25/16
f 2/4/7 18/30/7 16/26/7
f 29/27/17 16/26/17 18/30/17
f 19/31/18 61/32/18 60/33/18
f 2/4/14 20/34/14 18/30/14
f 18/30/19 20/34/19 31/35/19
f 19/31/20 21/36/20 62/37/20
f 2/4/2 22/38/2 20/34/2
f 20/34/21 22/38/21 32/39/21
f 3/40/22 53/3/22 62/37/22
f 2/4/7 4/6/7 22/38/7
f 32/39/23 22/38/23 4/6/23
f 23/41/24 24/7/24 43/42/24
f 24/7/25 25/11/25 44/43/25
f 25/11/26 26/15/26 45/44/26
f 26/15/27 27/19/27 46/45/27
f 27/19/28 28/23/28 47/46/28
f 28/23/29 29/27/29 48/47/29
f 48/47/30 29/27/30 30/48/30
f 30/48/31 31/35/31 50/49/31
f 31/35/32 32/39/32 51/50/32
f 32/39/33 23/41/33 52/51/33
f 42/52/34 33/53/34 5/1/34
f 33/53/35 34/54/35 7/8/35
f 34/54/36 35/55/36 9/12/36
f 9/12/37 35/55/37 36/56/37
f 36/56/38 37/57/38 13/20/38
f 13/20/39 37/57/39 38/58/39
f 15/24/40 38/58/40 39/59/40
f 17/60/41 39/61/41 40/62/41
f 40/62/42 41/63/42 21/36/42
f 41/63/43 42/52/43 3/40/43
f 52/51/44 43/42/44 33/64/44
f 43/42/45 44/43/45 34/65/45
f 34/65/46 44/43/46 45/44/46
f 35/66/47 45/44/47 46/45/47
f 46/45/48 47/46/48 37/67/48
f 47/46/49 48/47/49 38/68/49
f 38/68/50 48/47/50 49/69/50
f 49/69/51 50/49/51 40/70/51
f 50/49/52 51/50/52 41/71/52
f 41/71/53 51/50/53 52/51/53
f 54/2/54 64/72/54 63/73/54
f 55/9/55 65/74/55 64/72/55
f 55/9/56 56/13/56 66/75/56
f 57/17/57 67/76/57 66/75/57
f 58/21/58 68/77/58 67/76/58
f 59/25/59 69/78/59 68/77/59
f 60/29/60 70/79/60 69/78/60
f 60/33/61 61/32/61 71/80/61
f 62/37/62 72/81/62 71/80/62
f 62/37/63 53/3/63 63/73/63
f 1/82/64 63/73/64 64/72/64
f 1/82/64 64/72/64 65/74/64
f 1/82/64 65/74/64 66/75/64
f 1/83/64 66/75/64 67/76/64
f 1/83/64 67/76/64 68/77/64
f 1/83/64 68/77/64 69/78/64
f 1/83/64 69/78/64 70/79/64
f 1/82/64 70/84/64 71/80/64
f 1/82/64 71/80/64 72/81/64
f 1/82/64 72/81/64 63/73/64
f 3/40/1 5/1/1 53/3/1
f 23/41/65 4/6/65 24/7/65
f 5/1/4 7/8/4 54/2/4
f 24/7/66 6/5/66 25/11/66
f 7/8/6 9/12/6 55/9/6
f 25/11/67 8/10/67 26/15/67
f 9/12/9 11/16/9 56/13/9
f 26/15/68 10/14/68 27/19/68
f 11/16/11 13/20/11 57/17/11
f 27/19/12 12/18/12 28/23/12
f 13/20/13 15/24/13 58/21/13
f 28/23/15 14/22/15 29/27/15
f 15/24/16 17/28/16 59/25/16
f 30/48/69 29/27/69 18/30/69
f 17/60/18 19/31/18 60/33/18
f 30/48/19 18/30/19 31/35/19
f 61/32/20 19/31/20 62/37/20
f 31/35/70 20/34/70 32/39/70
f 21/36/22 3/40/22 62/37/22
f 23/41/71 32/39/71 4/6/71
f 52/51/72 23/41/72 43/42/72
f 43/42/25 24/7/25 44/43/25
f 44/43/26 25/11/26 45/44/26
f 45/44/73 26/15/73 46/45/73
f 46/45/74 27/19/74 47/46/74
f 47/46/29 28/23/29 48/47/29
f 49/69/30 48/47/30 30/48/30
f 49/69/31 30/48/31 50/49/31
f 50/49/32 31/35/32 51/50/32
f 51/50/75 32/39/75 52/51/75
f 3/40/76 42/52/76 5/1/76
f 5/1/77 33/53/77 7/8/77
f 7/8/36 34/54/36 9/12/36
f 11/16/78 9/12/78 36/56/78
f 11/16/79 36/56/79 13/20/79
f 15/24/80 13/20/80 38/58/80
f 17/28/81 15/24/81 39/59/81
f 19/31/82 17/60/82 40/62/82
f 19/31/83 40/62/83 21/36/83
f 21/36/43 41/63/43 3/40/43
f 42/85/84 52/51/84 33/64/84
f 33/64/45 43/42/45 34/65/45
f 35/66/46 34/65/46 45/44/46
f 36/86/47 35/66/47 46/45/47
f 36/86/85 46/45/85 37/67/85
f 37/67/49 47/46/49 38/68/49
f 39/87/50 38/68/50 49/69/50
f 39/87/51 49/69/51 40/70/51
f 40/70/52 50/49/52 41/71/52
f 42/85/53 41/71/53 52/51/53
f 53/3/86 54/2/86 63/73/86
f 54/2/55 55/9/55 64/72/55
f 65/74/56 55/9/56 66/75/56
f 56/13/87 57/17/87 66/75/87
f 57/17/88 58/21/88 67/76/88
f 58/21/59 59/25/59 68/77/59
f 59/25/89 60/29/89 69/78/89
f 70/84/61 60/33/61 71/80/61
f 61/32/62 62/37/62 71/80/62
f 72/81/63 62/37/63 63/73/63
