ply
format ascii 1.0
comment Created by Blender 2.70 (sub 0) - www.blender.org, source file: 'target2.blend'
element vertex 202
property float x
property float y
property float z
property float nx
property float ny
property float nz
property uchar red
property uchar green
property uchar blue
element face 80
property list uchar uint vertex_indices
end_header
0.000000 0.000000 0.000000 -0.000000 -0.000000 -1.000000 86 0 232
0.000000 1.000000 0.000000 -0.000000 -0.000000 -1.000000 86 0 232
0.309017 0.951057 0.000000 -0.000000 -0.000000 -1.000000 90 6 233
0.000000 0.000000 0.250000 0.000000 0.000000 1.000000 232 117 0
0.309017 0.951057 0.250000 0.000000 0.000000 1.000000 232 117 0
0.000000 1.000000 0.250000 0.000000 0.000000 1.000000 232 117 0
0.000000 1.000000 0.116713 0.156434 0.987688 0.000000 232 117 1
0.000000 1.000000 0.250000 0.156434 0.987688 0.000000 232 117 0
0.309017 0.951057 0.250000 0.156434 0.987688 0.000000 232 117 0
0.309017 0.951057 0.116713 0.156434 0.987688 0.000000 232 118 2
0.587785 0.809017 0.000000 -0.000000 0.000000 -1.000000 86 1 232
0.587785 0.809017 0.250000 0.000000 0.000000 1.000000 232 117 0
0.309017 0.951057 0.116713 0.453991 0.891007 0.000000 232 118 2
0.309017 0.951057 0.250000 0.453991 0.891007 0.000000 232 117 0
0.587785 0.809017 0.250000 0.453991 0.891007 0.000000 232 117 0
0.587785 0.809017 0.116713 0.453991 0.891007 0.000000 232 118 1
0.809017 0.587785 0.000000 -0.000000 0.000000 -1.000000 88 2 232
0.809017 0.587785 0.250000 0.000000 0.000000 1.000000 232 117 0
0.587785 0.809017 0.116713 0.707107 0.707107 0.000000 232 117 0
0.587785 0.809017 0.250000 0.707107 0.707107 0.000000 232 117 0
0.809017 0.587785 0.250000 0.707107 0.707107 0.000000 232 117 0
0.809017 0.587785 0.116713 0.707107 0.707107 0.000000 232 117 0
0.951057 0.309017 0.000000 -0.000000 0.000000 -1.000000 86 0 232
0.951057 0.309017 0.250000 0.000000 0.000000 1.000000 232 117 0
0.809017 0.587785 0.116713 0.891007 0.453991 0.000000 232 117 0
0.809017 0.587785 0.250000 0.891007 0.453991 0.000000 232 117 0
0.951057 0.309017 0.250000 0.891007 0.453991 0.000000 232 117 0
0.951057 0.309017 0.116713 0.891007 0.453991 0.000000 232 117 0
1.000000 -0.000000 0.000000 -0.000000 0.000000 -1.000000 86 0 232
1.000000 -0.000000 0.250000 0.000000 0.000000 1.000000 232 117 0
0.951057 0.309017 0.116713 0.987688 0.156434 0.000000 232 117 0
0.951057 0.309017 0.250000 0.987688 0.156434 0.000000 232 117 0
1.000000 -0.000000 0.250000 0.987688 0.156434 0.000000 232 117 0
1.000000 -0.000000 0.116713 0.987688 0.156434 0.000000 232 117 0
0.951056 -0.309017 0.000000 0.000000 0.000000 -1.000000 86 0 232
0.951056 -0.309017 0.250000 0.000000 0.000000 1.000000 232 117 0
1.000000 -0.000000 0.116713 0.987688 -0.156435 0.000000 232 117 0
1.000000 -0.000000 0.250000 0.987688 -0.156435 0.000000 232 117 0
0.951056 -0.309017 0.250000 0.987688 -0.156435 0.000000 232 117 0
0.951056 -0.309017 0.116713 0.987688 -0.156435 0.000000 234 147 60
0.809017 -0.587785 0.000000 0.000000 0.000000 -1.000000 86 0 232
0.809017 -0.587785 0.250000 0.000000 0.000000 1.000000 232 117 0
0.951056 -0.309017 0.116713 0.891007 -0.453991 0.000000 234 147 60
0.951056 -0.309017 0.250000 0.891007 -0.453991 0.000000 232 117 0
0.809017 -0.587785 0.250000 0.891007 -0.453991 0.000000 232 117 0
0.809017 -0.587785 0.116713 0.891007 -0.453991 0.000000 232 117 1
0.587785 -0.809017 0.000000 0.000000 0.000000 -1.000000 86 0 232
0.587785 -0.809017 0.250000 0.000000 0.000000 1.000000 232 117 0
0.809017 -0.587785 0.116713 0.707107 -0.707107 0.000000 232 117 1
0.809017 -0.587785 0.250000 0.707107 -0.707107 0.000000 232 117 0
0.587785 -0.809017 0.250000 0.707107 -0.707107 0.000000 232 117 0
0.587785 -0.809017 0.116713 0.707107 -0.707107 0.000000 232 117 0
0.309017 -0.951057 0.000000 0.000000 0.000000 -1.000000 86 0 232
0.309017 -0.951057 0.250000 0.000000 0.000000 1.000000 232 117 0
0.587785 -0.809017 0.116713 0.453990 -0.891007 0.000000 232 117 0
0.587785 -0.809017 0.250000 0.453990 -0.891007 0.000000 232 117 0
0.309017 -0.951057 0.250000 0.453990 -0.891007 0.000000 232 117 0
0.309017 -0.951057 0.116713 0.453990 -0.891007 0.000000 232 117 0
-0.000000 -1.000000 0.000000 0.000000 0.000000 -1.000000 86 0 232
-0.000000 -1.000000 0.250000 0.000000 -0.000000 1.000000 232 117 0
0.309017 -0.951057 0.116713 0.156434 -0.987688 0.000000 232 117 0
0.309017 -0.951057 0.250000 0.156434 -0.987688 0.000000 232 117 0
-0.000000 -1.000000 0.250000 0.156434 -0.987688 0.000000 232 117 0
-0.000000 -1.000000 0.116713 0.156434 -0.987688 0.000000 232 117 0
-0.309017 -0.951056 0.000000 0.000000 0.000000 -1.000000 86 0 232
-0.309017 -0.951056 0.250000 0.000000 -0.000000 1.000000 232 117 0
-0.000000 -1.000000 0.116713 -0.156435 -0.987688 0.000000 232 117 0
-0.000000 -1.000000 0.250000 -0.156435 -0.987688 0.000000 232 117 0
-0.309017 -0.951056 0.250000 -0.156435 -0.987688 0.000000 232 117 0
-0.309017 -0.951056 0.116713 -0.156435 -0.987688 0.000000 232 117 0
-0.587786 -0.809017 0.000000 0.000000 0.000000 -1.000000 86 0 232
-0.587786 -0.809017 0.250000 0.000000 -0.000000 1.000000 232 117 0
-0.309017 -0.951056 0.116713 -0.453991 -0.891006 0.000000 232 117 0
-0.309017 -0.951056 0.250000 -0.453991 -0.891006 0.000000 232 117 0
-0.587786 -0.809017 0.250000 -0.453991 -0.891006 0.000000 232 117 0
-0.587786 -0.809017 0.116713 -0.453991 -0.891006 0.000000 232 117 0
-0.809017 -0.587785 0.000000 0.000000 0.000000 -1.000000 86 0 232
-0.809017 -0.587785 0.250000 0.000000 -0.000000 1.000000 232 117 0
-0.587786 -0.809017 0.116713 -0.707107 -0.707106 0.000000 232 118 2
-0.587786 -0.809017 0.250000 -0.707107 -0.707106 0.000000 232 117 0
-0.809017 -0.587785 0.250000 -0.707107 -0.707106 0.000000 232 117 0
-0.809017 -0.587785 0.116713 -0.707107 -0.707106 0.000000 232 117 1
-0.951057 -0.309016 0.000000 0.000000 0.000000 -1.000000 86 0 232
-0.951057 -0.309016 0.250000 0.000000 -0.000000 1.000000 232 117 0
-0.809017 -0.587785 0.116713 -0.891007 -0.453990 0.000000 232 117 1
-0.809017 -0.587785 0.250000 -0.891007 -0.453990 0.000000 232 117 0
-0.951057 -0.309016 0.250000 -0.891007 -0.453990 0.000000 232 117 0
-0.951057 -0.309016 0.116713 -0.891007 -0.453990 0.000000 232 117 0
-1.000000 0.000001 0.000000 0.000000 0.000000 -1.000000 86 0 232
-1.000000 0.000001 0.250000 -0.000000 -0.000000 1.000000 232 117 0
-0.951057 -0.309016 0.116713 -0.987688 -0.156434 0.000000 232 117 0
-0.951057 -0.309016 0.250000 -0.987688 -0.156434 0.000000 232 117 0
-1.000000 0.000001 0.250000 -0.987688 -0.156434 0.000000 232 117 0
-1.000000 0.000001 0.116713 -0.987688 -0.156434 0.000000 232 117 0
-0.951056 0.309018 0.000000 0.000000 -0.000000 -1.000000 93 11 234
-0.951056 0.309018 0.250000 -0.000000 0.000000 1.000000 232 117 0
-1.000000 0.000001 0.116713 -0.987688 0.156435 0.000000 232 117 0
-1.000000 0.000001 0.250000 -0.987688 0.156435 0.000000 232 117 0
-0.951056 0.309018 0.250000 -0.987688 0.156435 0.000000 232 117 0
-0.951056 0.309018 0.116713 -0.987688 0.156435 0.000000 232 117 0
-0.809016 0.587786 0.000000 0.000000 -0.000000 -1.000000 90 8 233
-0.809016 0.587786 0.250000 -0.000000 0.000000 1.000000 232 117 0
-0.951056 0.309018 0.116713 -0.891006 0.453992 0.000000 232 117 0
-0.951056 0.309018 0.250000 -0.891006 0.453992 0.000000 232 117 0
-0.809016 0.587786 0.250000 -0.891006 0.453992 0.000000 232 117 0
-0.809016 0.587786 0.116713 -0.891006 0.453992 0.000000 232 117 0
-0.587784 0.809018 0.000000 0.000000 -0.000000 -1.000000 86 0 232
-0.587784 0.809018 0.250000 -0.000000 0.000000 1.000000 232 117 0
-0.809016 0.587786 0.116713 -0.707106 0.707108 0.000000 232 117 0
-0.809016 0.587786 0.250000 -0.707106 0.707108 0.000000 232 117 0
-0.587784 0.809018 0.250000 -0.707106 0.707108 0.000000 232 117 0
-0.587784 0.809018 0.116713 -0.707106 0.707108 0.000000 232 117 0
-0.309016 0.951057 0.000000 0.000000 -0.000000 -1.000000 88 2 232
-0.309016 0.951057 0.250000 -0.000000 0.000000 1.000000 232 117 0
-0.587784 0.809018 0.116713 -0.453989 0.891007 0.000000 232 117 0
-0.587784 0.809018 0.250000 -0.453989 0.891007 0.000000 232 117 0
-0.309016 0.951057 0.250000 -0.453989 0.891007 0.000000 232 117 0
-0.309016 0.951057 0.116713 -0.453989 0.891007 0.000000 232 117 0
-0.309016 0.951057 0.116713 -0.156434 0.987688 0.000000 232 117 0
-0.309016 0.951057 0.250000 -0.156434 0.987688 0.000000 232 117 0
0.000000 1.000000 0.250000 -0.156434 0.987688 0.000000 232 117 0
0.000000 1.000000 0.116713 -0.156434 0.987688 0.000000 232 117 1
0.000000 1.000000 0.000000 0.156434 0.987688 0.000000 86 0 232
0.000000 1.000000 0.116713 0.156434 0.987688 0.000000 86 0 232
0.309017 0.951057 0.116713 0.156434 0.987688 0.000000 88 2 232
0.309017 0.951057 0.000000 0.156434 0.987688 0.000000 86 0 232
0.309017 0.951057 0.000000 0.453991 0.891007 0.000000 86 0 232
0.309017 0.951057 0.116713 0.453991 0.891007 0.000000 88 2 232
0.587785 0.809017 0.116713 0.453991 0.891007 0.000000 87 1 232
0.587785 0.809017 0.000000 0.453991 0.891007 0.000000 86 0 232
0.587785 0.809017 0.000000 0.707107 0.707107 0.000000 86 0 232
0.587785 0.809017 0.116713 0.707107 0.707107 0.000000 88 3 232
0.809017 0.587785 0.116713 0.707107 0.707107 0.000000 86 0 232
0.809017 0.587785 0.000000 0.707107 0.707107 0.000000 86 0 232
0.809017 0.587785 0.000000 0.891006 0.453991 0.000000 86 0 232
0.809017 0.587785 0.116713 0.891006 0.453991 0.000000 86 0 232
0.951057 0.309017 0.116713 0.891006 0.453991 0.000000 86 0 232
0.951057 0.309017 0.000000 0.891006 0.453991 0.000000 86 0 232
0.951057 0.309017 0.000000 0.987688 0.156434 0.000000 86 0 232
0.951057 0.309017 0.116713 0.987688 0.156434 0.000000 86 0 232
1.000000 -0.000000 0.116713 0.987688 0.156434 0.000000 86 0 232
1.000000 -0.000000 0.000000 0.987688 0.156434 0.000000 86 0 232
1.000000 -0.000000 0.000000 0.987688 -0.156435 0.000000 86 0 232
1.000000 -0.000000 0.116713 0.987688 -0.156435 0.000000 86 0 232
0.951056 -0.309017 0.116713 0.987688 -0.156435 0.000000 86 0 232
0.951056 -0.309017 0.000000 0.987688 -0.156435 0.000000 86 0 232
0.951056 -0.309017 0.000000 0.891006 -0.453991 0.000000 86 0 232
0.951056 -0.309017 0.116713 0.891006 -0.453991 0.000000 86 0 232
0.809017 -0.587785 0.116713 0.891006 -0.453991 0.000000 86 0 232
0.809017 -0.587785 0.000000 0.891006 -0.453991 0.000000 86 0 232
0.809017 -0.587785 0.000000 0.707107 -0.707107 0.000000 86 0 232
0.809017 -0.587785 0.116713 0.707107 -0.707107 0.000000 86 0 232
0.587785 -0.809017 0.116713 0.707107 -0.707107 0.000000 87 1 232
0.587785 -0.809017 0.000000 0.707107 -0.707107 0.000000 86 0 232
0.587785 -0.809017 0.000000 0.453990 -0.891007 0.000000 86 0 232
0.587785 -0.809017 0.116713 0.453990 -0.891007 0.000000 87 1 232
0.309017 -0.951057 0.116713 0.453990 -0.891007 0.000000 86 0 232
0.309017 -0.951057 0.000000 0.453990 -0.891007 0.000000 86 0 232
0.309017 -0.951057 0.000000 0.156434 -0.987688 0.000000 86 0 232
0.309017 -0.951057 0.116713 0.156434 -0.987688 0.000000 86 0 232
-0.000000 -1.000000 0.116713 0.156434 -0.987688 0.000000 86 0 232
-0.000000 -1.000000 0.000000 0.156434 -0.987688 0.000000 86 0 232
-0.000000 -1.000000 0.000000 -0.156435 -0.987688 0.000000 86 0 232
-0.000000 -1.000000 0.116713 -0.156435 -0.987688 0.000000 86 0 232
-0.309017 -0.951056 0.116713 -0.156435 -0.987688 0.000000 86 0 232
-0.309017 -0.951056 0.000000 -0.156435 -0.987688 0.000000 86 0 232
-0.309017 -0.951056 0.000000 -0.453991 -0.891006 0.000000 86 0 232
-0.309017 -0.951056 0.116713 -0.453991 -0.891006 0.000000 86 0 232
-0.587786 -0.809017 0.116713 -0.453991 -0.891006 0.000000 86 0 232
-0.587786 -0.809017 0.000000 -0.453991 -0.891006 0.000000 86 0 232
-0.587786 -0.809017 0.000000 -0.707107 -0.707106 0.000000 86 0 232
-0.587786 -0.809017 0.116713 -0.707107 -0.707106 0.000000 86 0 232
-0.809017 -0.587785 0.116713 -0.707107 -0.707106 0.000000 86 0 232
-0.809017 -0.587785 0.000000 -0.707107 -0.707106 0.000000 86 0 232
-0.809017 -0.587785 0.000000 -0.891007 -0.453990 0.000000 86 0 232
-0.809017 -0.587785 0.116713 -0.891007 -0.453990 0.000000 86 0 232
-0.951057 -0.309016 0.116713 -0.891007 -0.453990 0.000000 86 0 232
-0.951057 -0.309016 0.000000 -0.891007 -0.453990 0.000000 100 22 234
-0.951057 -0.309016 0.000000 -0.987688 -0.156434 0.000000 100 22 234
-0.951057 -0.309016 0.116713 -0.987688 -0.156434 0.000000 86 0 232
-1.000000 0.000001 0.116713 -0.987688 -0.156434 0.000000 86 0 232
-1.000000 0.000001 0.000000 -0.987688 -0.156434 0.000000 86 0 232
-1.000000 0.000001 0.000000 -0.987688 0.156435 0.000000 86 0 232
-1.000000 0.000001 0.116713 -0.987688 0.156435 0.000000 86 0 232
-0.951056 0.309018 0.116713 -0.987688 0.156435 0.000000 86 0 232
-0.951056 0.309018 0.000000 -0.987688 0.156435 0.000000 86 0 232
-0.951056 0.309018 0.000000 -0.891006 0.453992 0.000000 86 0 232
-0.951056 0.309018 0.116713 -0.891006 0.453992 0.000000 86 0 232
-0.809016 0.587786 0.116713 -0.891006 0.453992 0.000000 86 0 232
-0.809016 0.587786 0.000000 -0.891006 0.453992 0.000000 86 0 232
-0.809016 0.587786 0.000000 -0.707106 0.707108 0.000000 86 0 232
-0.809016 0.587786 0.116713 -0.707106 0.707108 0.000000 86 0 232
-0.587784 0.809018 0.116713 -0.707106 0.707108 0.000000 86 0 232
-0.587784 0.809018 0.000000 -0.707106 0.707108 0.000000 86 0 232
-0.587784 0.809018 0.000000 -0.453989 0.891007 0.000000 86 0 232
-0.587784 0.809018 0.116713 -0.453989 0.891007 0.000000 86 0 232
-0.309016 0.951057 0.116713 -0.453989 0.891007 0.000000 124 56 238
-0.309016 0.951057 0.000000 -0.453989 0.891007 0.000000 86 0 232
-0.309016 0.951057 0.000000 -0.156434 0.987688 0.000000 86 0 232
-0.309016 0.951057 0.116713 -0.156434 0.987688 0.000000 86 0 232
0.000000 1.000000 0.116713 -0.156434 0.987688 0.000000 86 0 232
0.000000 1.000000 0.000000 -0.156434 0.987688 0.000000 86 0 232
3 0 1 2
3 3 4 5
4 6 7 8 9
3 0 2 10
3 3 11 4
4 12 13 14 15
3 0 10 16
3 3 17 11
4 18 19 20 21
3 0 16 22
3 3 23 17
4 24 25 26 27
3 0 22 28
3 3 29 23
4 30 31 32 33
3 0 28 34
3 3 35 29
4 36 37 38 39
3 0 34 40
3 3 41 35
4 42 43 44 45
3 0 40 46
3 3 47 41
4 48 49 50 51
3 0 46 52
3 3 53 47
4 54 55 56 57
3 0 52 58
3 3 59 53
4 60 61 62 63
3 0 58 64
3 3 65 59
4 66 67 68 69
3 0 64 70
3 3 71 65
4 72 73 74 75
3 0 70 76
3 3 77 71
4 78 79 80 81
3 0 76 82
3 3 83 77
4 84 85 86 87
3 0 82 88
3 3 89 83
4 90 91 92 93
3 0 88 94
3 3 95 89
4 96 97 98 99
3 0 94 100
3 3 101 95
4 102 103 104 105
3 0 100 106
3 3 107 101
4 108 109 110 111
3 0 106 112
3 3 113 107
4 114 115 116 117
3 0 112 1
3 3 5 113
4 118 119 120 121
4 122 123 124 125
4 126 127 128 129
4 130 131 132 133
4 134 135 136 137
4 138 139 140 141
4 142 143 144 145
4 146 147 148 149
4 150 151 152 153
4 154 155 156 157
4 158 159 160 161
4 162 163 164 165
4 166 167 168 169
4 170 171 172 173
4 174 175 176 177
4 178 179 180 181
4 182 183 184 185
4 186 187 188 189
4 190 191 192 193
4 194 195 196 197
4 198 199 200 201
