# Blender v2.70 (sub 0) OBJ File: 'target.blend'
# www.blender.org
mtllib target.mtl
o target_Cylinder
v 0.000000 0.000000 0.000000
v 0.000000 0.000000 0.329580
v 0.000000 1.500000 0.000000
v 0.000000 1.238716 0.329580
v 0.463526 1.426585 0.000000
v 0.382784 1.178089 0.329580
v 0.881678 1.213526 0.000000
v 0.728099 1.002142 0.329580
v 1.213526 0.881678 0.000000
v 1.002142 0.728099 0.329580
v 1.426585 0.463525 0.000000
v 1.178089 0.382784 0.329580
v 1.500000 -0.000000 0.000000
v 1.238716 0.000000 0.329580
v 1.426585 -0.463526 0.000000
v 1.178089 -0.382784 0.329580
v 1.213526 -0.881678 0.000000
v 1.002142 -0.728099 0.329580
v 0.881678 -1.213526 0.000000
v 0.728099 -1.002142 0.329580
v 0.463525 -1.426585 0.000000
v 0.382784 -1.178089 0.329580
v -0.000000 -1.500000 0.000000
v -0.000000 -1.238716 0.329580
v -0.463526 -1.426584 0.000000
v -0.382785 -1.178088 0.329580
v -0.881679 -1.213525 0.000000
v -0.728099 -1.002141 0.329580
v -1.213526 -0.881677 0.000000
v -1.002143 -0.728098 0.329580
v -1.426585 -0.463524 0.000000
v -1.178089 -0.382783 0.329580
v -1.500000 0.000001 0.000000
v -1.238716 0.000001 0.329580
v -1.426584 0.463527 0.000000
v -1.178088 0.382786 0.329580
v -1.213524 0.881679 0.000000
v -1.002141 0.728100 0.329580
v -0.881676 1.213527 0.000000
v -0.728097 1.002143 0.329580
v -0.463523 1.426585 0.000000
v -0.382782 1.178089 0.329580
v 0.000000 1.500000 0.175507
v 0.463526 1.426585 0.175507
v 0.881678 1.213526 0.175507
v 1.213526 0.881678 0.175507
v 1.426585 0.463525 0.175507
v 1.500000 -0.000000 0.175507
v 1.426585 -0.463526 0.175507
v 1.213526 -0.881678 0.175507
v 0.881678 -1.213526 0.175507
v 0.463525 -1.426585 0.175507
v -0.000000 -1.500000 0.175507
v -0.463526 -1.426584 0.175507
v -0.881679 -1.213525 0.175507
v -1.213526 -0.881677 0.175507
v -1.426585 -0.463524 0.175507
v -1.500000 0.000001 0.175507
v -1.426584 0.463527 0.175507
v -1.213524 0.881679 0.175507
v -0.881676 1.213527 0.175507
v -0.463523 1.426585 0.175507
vt 0.833843 0.545587
vt 0.635936 0.875319
vt 0.603025 0.870739
vt 0.519531 0.332030
vt 0.494889 0.500447
vt 0.444051 0.484589
vt 0.476684 0.602554
vt 0.570111 0.866559
vt 0.548139 0.499819
vt 0.537187 0.863189
vt 0.598588 0.482767
vt 0.643878 0.576073
vt 0.504256 0.860958
vt 0.641299 0.450959
vt 0.713205 0.525703
vt 0.175361 0.545587
vt 0.471318 0.860085
vt 0.672090 0.407510
vt 0.763574 0.456376
vt 0.438380 0.860655
vt 0.687948 0.356672
vt 0.790054 0.374877
vt 0.405447 0.862612
vt 0.687320 0.303423
vt 0.790054 0.289183
vt 0.372521 0.865765
vt 0.670268 0.252974
vt 0.763573 0.207685
vt 0.339605 0.869806
vt 0.638460 0.210263
vt 0.713204 0.138358
vt 0.306694 0.874338
vt 0.595011 0.179472
vt 0.643877 0.087989
vt 0.273784 0.878917
vt 0.544174 0.163614
vt 0.562378 0.061508
vt 0.240869 0.883097
vt 0.490924 0.164242
vt 0.476686 0.061508
vt 0.207946 0.886467
vt 0.440475 0.181294
vt 0.395187 0.087988
vt 0.866428 0.886467
vt 0.833497 0.888698
vt 0.397764 0.213101
vt 0.800559 0.889571
vt 0.366973 0.256550
vt 0.325859 0.138357
vt 0.767621 0.889001
vt 0.351115 0.307388
vt 0.275490 0.207684
vt 0.734688 0.887044
vt 0.351743 0.360637
vt 0.249009 0.289183
vt 0.701762 0.883890
vt 0.368795 0.411087
vt 0.249008 0.374876
vt 0.668846 0.879850
vt 0.400602 0.453798
vt 0.325858 0.525704
vt 0.395185 0.576073
vt 0.635569 0.933077
vt 0.602674 0.928497
vt 0.569808 0.924317
vt 0.536963 0.920947
vt 0.504131 0.918716
vt 0.471306 0.917843
vt 0.438481 0.918413
vt 0.405651 0.920371
vt 0.372810 0.923524
vt 0.339949 0.927564
vt 0.307060 0.932096
vt 0.274136 0.936676
vt 0.241173 0.940855
vt 0.208172 0.944225
vt 0.866654 0.944225
vt 0.833622 0.946456
vt 0.800571 0.947329
vt 0.767519 0.946759
vt 0.734482 0.944802
vt 0.701473 0.941649
vt 0.668501 0.937609
vt 0.562378 0.602554
vt 0.275488 0.456376
vn 0.000000 0.000000 -1.000000
vn 0.000000 0.000000 1.000000
vn 0.080191 0.506306 0.858617
vn 0.232724 0.456746 0.858617
vn 0.362475 0.362475 0.858617
vn 0.456745 0.232723 0.858617
vn 0.506306 0.080191 0.858617
vn 0.506306 -0.080191 0.858617
vn 0.456745 -0.232723 0.858617
vn 0.362475 -0.362475 0.858617
vn 0.232724 -0.456746 0.858617
vn 0.080191 -0.506306 0.858617
vn -0.080191 -0.506306 0.858617
vn -0.232723 -0.456745 0.858617
vn -0.362475 -0.362475 0.858617
vn -0.456746 -0.232723 0.858617
vn -0.506306 -0.080191 0.858617
vn -0.506306 0.080192 0.858617
vn -0.456745 0.232724 0.858617
vn -0.362475 0.362476 0.858617
vn -0.232723 0.456746 0.858617
vn -0.080191 0.506307 0.858617
vn 0.156434 0.987688 0.000000
vn 0.453991 0.891006 0.000000
vn 0.707107 0.707107 0.000000
vn 0.891007 0.453990 0.000000
vn 0.987688 0.156434 0.000000
vn 0.987688 -0.156435 0.000000
vn 0.891007 -0.453990 0.000000
vn 0.707107 -0.707107 0.000000
vn 0.453990 -0.891006 0.000000
vn 0.156434 -0.987688 0.000000
vn -0.156435 -0.987688 0.000000
vn -0.453991 -0.891006 0.000000
vn -0.707107 -0.707106 0.000000
vn -0.891007 -0.453990 0.000000
vn -0.987689 -0.156433 0.000000
vn -0.987688 0.156436 0.000000
vn -0.891006 0.453991 0.000000
vn -0.707106 0.707108 0.000000
vn -0.453989 0.891007 0.000000
vn -0.156434 0.987688 0.000000
vn 0.080191 0.506307 0.858617
vn 0.456746 0.232723 0.858617
vn 0.456745 -0.232724 0.858617
vn 0.232723 -0.456745 0.858617
vn -0.232724 -0.456745 0.858617
vn -0.506306 0.080191 0.858617
vn -0.080191 0.506306 0.858617
vn 0.891006 0.453991 0.000000
vn 0.987688 -0.156434 0.000000
vn 0.453991 -0.891006 0.000000
vn -0.987688 0.156435 0.000000
vn -0.891006 0.453992 0.000000
usemtl target
s off
f 1/1/1 3/2/1 5/3/1
f 2/4/2 6/5/2 4/6/2
f 4/6/3 6/5/3 44/7/3
f 1/1/1 5/3/1 7/8/1
f 2/4/2 8/9/2 6/5/2
f 44/7/4 6/5/4 8/9/4
f 1/1/1 7/8/1 9/10/1
f 2/4/2 10/11/2 8/9/2
f 8/9/5 10/11/5 46/12/5
f 1/1/1 9/10/1 11/13/1
f 2/4/2 12/14/2 10/11/2
f 10/11/6 12/14/6 47/15/6
f 1/16/1 11/13/1 13/17/1
f 2/4/2 14/18/2 12/14/2
f 12/14/7 14/18/7 48/19/7
f 1/16/1 13/17/1 15/20/1
f 2/4/2 16/21/2 14/18/2
f 14/18/8 16/21/8 49/22/8
f 1/16/1 15/20/1 17/23/1
f 2/4/2 18/24/2 16/21/2
f 16/21/9 18/24/9 50/25/9
f 1/16/1 17/23/1 19/26/1
f 2/4/2 20/27/2 18/24/2
f 18/24/10 20/27/10 51/28/10
f 1/16/1 19/26/1 21/29/1
f 2/4/2 22/30/2 20/27/2
f 20/27/11 22/30/11 52/31/11
f 1/16/1 21/29/1 23/32/1
f 2/4/2 24/33/2 22/30/2
f 22/30/12 24/33/12 53/34/12
f 1/16/1 23/32/1 25/35/1
f 2/4/2 26/36/2 24/33/2
f 24/33/13 26/36/13 54/37/13
f 1/16/1 25/35/1 27/38/1
f 2/4/2 28/39/2 26/36/2
f 26/36/14 28/39/14 55/40/14
f 1/16/1 27/38/1 29/41/1
f 2/4/2 30/42/2 28/39/2
f 28/39/15 30/42/15 56/43/15
f 1/1/1 29/44/1 31/45/1
f 2/4/2 32/46/2 30/42/2
f 56/43/16 30/42/16 32/46/16
f 1/1/1 31/45/1 33/47/1
f 2/4/2 34/48/2 32/46/2
f 57/49/17 32/46/17 34/48/17
f 1/1/1 33/47/1 35/50/1
f 2/4/2 36/51/2 34/48/2
f 58/52/18 34/48/18 36/51/18
f 1/1/1 35/50/1 37/53/1
f 2/4/2 38/54/2 36/51/2
f 59/55/19 36/51/19 38/54/19
f 1/1/1 37/53/1 39/56/1
f 2/4/2 40/57/2 38/54/2
f 60/58/20 38/54/20 40/57/20
f 1/1/1 39/56/1 41/59/1
f 2/4/2 42/60/2 40/57/2
f 40/57/21 42/60/21 62/61/21
f 1/1/1 41/59/1 3/2/1
f 2/4/2 4/6/2 42/60/2
f 42/60/22 4/6/22 43/62/22
f 43/63/23 44/64/23 5/3/23
f 44/64/24 45/65/24 7/8/24
f 45/65/25 46/66/25 9/10/25
f 46/66/26 47/67/26 11/13/26
f 47/67/27 48/68/27 13/17/27
f 48/68/28 49/69/28 15/20/28
f 49/69/29 50/70/29 17/23/29
f 17/23/30 50/70/30 51/71/30
f 51/71/31 52/72/31 21/29/31
f 52/72/32 53/73/32 23/32/32
f 53/73/33 54/74/33 25/35/33
f 54/74/34 55/75/34 27/38/34
f 27/38/35 55/75/35 56/76/35
f 56/77/36 57/78/36 31/45/36
f 57/78/37 58/79/37 33/47/37
f 33/47/38 58/79/38 59/80/38
f 59/80/39 60/81/39 37/53/39
f 60/81/40 61/82/40 39/56/40
f 39/56/41 61/82/41 62/83/41
f 62/83/42 43/63/42 3/2/42
f 43/62/43 4/6/43 44/7/43
f 45/84/4 44/7/4 8/9/4
f 45/84/5 8/9/5 46/12/5
f 46/12/44 10/11/44 47/15/44
f 47/15/7 12/14/7 48/19/7
f 48/19/8 14/18/8 49/22/8
f 49/22/45 16/21/45 50/25/45
f 50/25/10 18/24/10 51/28/10
f 51/28/46 20/27/46 52/31/46
f 52/31/12 22/30/12 53/34/12
f 53/34/13 24/33/13 54/37/13
f 54/37/47 26/36/47 55/40/47
f 55/40/15 28/39/15 56/43/15
f 57/49/16 56/43/16 32/46/16
f 58/52/17 57/49/17 34/48/17
f 59/55/48 58/52/48 36/51/48
f 60/58/19 59/55/19 38/54/19
f 61/85/20 60/58/20 40/57/20
f 61/85/21 40/57/21 62/61/21
f 62/61/49 42/60/49 43/62/49
f 3/2/23 43/63/23 5/3/23
f 5/3/24 44/64/24 7/8/24
f 7/8/25 45/65/25 9/10/25
f 9/10/50 46/66/50 11/13/50
f 11/13/27 47/67/27 13/17/27
f 13/17/51 48/68/51 15/20/51
f 15/20/29 49/69/29 17/23/29
f 19/26/30 17/23/30 51/71/30
f 19/26/52 51/71/52 21/29/52
f 21/29/32 52/72/32 23/32/32
f 23/32/33 53/73/33 25/35/33
f 25/35/34 54/74/34 27/38/34
f 29/41/35 27/38/35 56/76/35
f 29/44/36 56/77/36 31/45/36
f 31/45/37 57/78/37 33/47/37
f 35/50/53 33/47/53 59/80/53
f 35/50/54 59/80/54 37/53/54
f 37/53/40 60/81/40 39/56/40
f 41/59/41 39/56/41 62/83/41
f 41/59/42 62/83/42 3/2/42
